# xmcd
# 
# Track frame offsets:
#     150
#     2168
#     16980
#     32818
#     47713
#     61125
#     73998
#     85573
#     103630
#     114670
#     127488
#     141138
#     153205
#     165228
#     177150
#     189130
# 
# Disc length: 2725
# 
# Revision: 10
# Processed by: cddbd v1.5.2PL0 Copyright (c) Steve Scherf et al.
# Submitted via: fre:ac v1.0.17
# 
DISCID=cc0aa310
DTITLE=Various Artist - Livin', Lovin', Losin' - Songs of the Louvin Brothers
DYEAR=2003
DGENRE=Country
TTITLE0=Carl Jackson - Intro To Charlie And Ira
TTITLE1=Joe Nichols and Rhonda Vincent - Cash On The Barrelhead
TTITLE2=Emmylou Harris and Rodney Crowell - My Baby's Gone
TTITLE3=James Taylor and Alison Krauss - How's The World Treating You
TTITLE4=Vince Gill and Terri Clark - I Can't Keep You In Love With Me
TTITLE5=Merle Haggard and Carl Jackson - Must You Throw Dirt In My Face
TTITLE6=Merle Haggard and Carl Jackson - Ronnie Dunn and Rebecca Lynn Howard - If I Could Only Win Your Love
TTITLE7=Glen Campbell and Leslie Satcher - When I Stop Dreaming
TTITLE8=Kathy Louvin and Pamela Brown Hayes - I Wish You Knew
TTITLE9=Linda Ronstadt and Carl Jackson - The New Partner Waltz
TTITLE10=Patty Loveless and Jon Randall - Are You Teasing Me
TTITLE11=Harley Allen and Dierks Bentley - I Don't Believe You've Met My Baby
TTITLE12=Larry Cordle, Carl Jackson and Jerry Salley - You're Running Wild
TTITLE13=Dolly Parton and Sonya Isaacs - The Angels Rejoiced
TTITLE14=Marty Stuart and Del McCoury - Let Us Travel, Travel On
TTITLE15=Pam Tillis and Johnny Cash With The Jordanaires - Keep Your Eyes On Jesus
EXTD=(c)2003 Universal South - Universal Music and Video Distr.\nupc 044003862821\nKatalog: 80000458-02\n YEAR: 2003
EXTT0=
EXTT1=
EXTT2=
EXTT3=
EXTT4=
EXTT5=
EXTT6=
EXTT7=
EXTT8=
EXTT9=
EXTT10=
EXTT11=
EXTT12=
EXTT13=
EXTT14=
EXTT15=
PLAYORDER=
